# xmcd
#
# Track frame offsets: 
#        150
#        17856
#        43150
#        56904
#        80096
#        101825
#        118407
#        135095
#        153030
#        167998
#        187453
#        200893
#        222226
#
# Disc length: 3206 seconds
#
# Revision: 0
# Processed by: cddbd v1.5.2PL0 Copyright (c) Steve Scherf et al.
# Submitted via: ExactAudioCopy v1.0b3
#
DISCID=ca0c840d
DTITLE=Justified - Justified
DYEAR=2013
DGENRE=Bluegrass
TTITLE0=Ganstagrass f. T.O.N.E.-Z - Long Hard Times To Come
TTITLE1=Dave Alvin - Harlan County Line
TTITLE2=Beverly Staunton - Stand By Your Man
TTITLE3=Bill Champlin and Steve Porcaro - Devil at the Wheel
TTITLE4=Lynda Kay - Dream My Darling
TTITLE5=Cumberland River Band - Justified
TTITLE6=Robert Walsh - Southfield Blues
TTITLE7=Jesse Dayton and Brennen Leigh - We Lost It
TTITLE8=Lynda Kay - Jack and Coke
TTITLE9=Dave Alvin - Beautiful City 'Cross the River
TTITLE10=Ryan Kickland - In Trouble
TTITLE11=Homemade Jamz Blues Band - Hobo Man
TTITLE12=Gangstagrass f. R-Son - Gunslinging Rambler
EXTD=
EXTT0=
EXTT1=
EXTT2=
EXTT3=
EXTT4=
EXTT5=
EXTT6=
EXTT7=
EXTT8=
EXTT9=
EXTT10=
EXTT11=
EXTT12=
PLAYORDER=
